<svg width="16" height="16" viewBox="0 0 16 16" fill="none" xmlns="http://www.w3.org/2000/svg">
<path d="M5.29033 12.317C7.67438 12.317 9.60703 10.3843 9.60703 8.00029C9.60703 5.61625 7.67438 3.68359 5.29033 3.68359C2.90629 3.68359 0.973633 5.61625 0.973633 8.00029C0.973633 10.3843 2.90629 12.317 5.29033 12.317Z" stroke="#C1BBF6" stroke-width="0.6" stroke-miterlimit="10"/>
<path d="M10.7093 12.317C13.0933 12.317 15.026 10.3843 15.026 8.00029C15.026 5.61625 13.0933 3.68359 10.7093 3.68359C8.32523 3.68359 6.39258 5.61625 6.39258 8.00029C6.39258 10.3843 8.32523 12.317 10.7093 12.317Z" stroke="#C1BBF6" stroke-width="0.6" stroke-miterlimit="10"/>
<path d="M7.02637 5.74805H8.92343" stroke="#C1BBF6" stroke-width="0.6" stroke-miterlimit="10"/>
<path d="M7.02637 10.3145H8.92343" stroke="#C1BBF6" stroke-width="0.6" stroke-miterlimit="10"/>
<path d="M6.60645 9.34766H9.38609" stroke="#C1BBF6" stroke-width="0.6" stroke-miterlimit="10"/>
<path d="M6.61426 6.63184H9.38624" stroke="#C1BBF6" stroke-width="0.6" stroke-miterlimit="10"/>
<path d="M6.36328 7.54004H9.60676" stroke="#C1BBF6" stroke-width="0.6" stroke-miterlimit="10"/>
<path d="M6.36328 8.43945H9.60676" stroke="#C1BBF6" stroke-width="0.6" stroke-miterlimit="10"/>
</svg>
