<svg width="16" height="16" viewBox="0 0 16 16" fill="none" xmlns="http://www.w3.org/2000/svg">
<path d="M15.1794 2.66663H0.82053C0.369218 2.66663 0 3.03584 0 3.48712V12.5128C0 12.964 0.369218 13.3333 0.82053 13.3333H15.1795C15.6307 13.3333 16 12.9641 16 12.5128V3.48712C16 3.03584 15.6308 2.66663 15.1794 2.66663ZM14.8715 3.28197L8.47198 8.08202C8.35692 8.16958 8.1803 8.22436 7.99995 8.22355C7.81964 8.22436 7.64305 8.16958 7.52795 8.08202L1.1284 3.28197H14.8715ZM11.4531 8.39874L14.9403 12.7064C14.9438 12.7108 14.9481 12.714 14.9518 12.7179H1.04819C1.05187 12.7139 1.05619 12.7108 1.05969 12.7064L4.54687 8.39874C4.65371 8.26665 4.63346 8.07299 4.50112 7.9659C4.36902 7.85905 4.17537 7.8793 4.06849 8.01143L0.615374 12.2771V3.66659L7.15892 8.57427C7.40489 8.75746 7.70414 8.83808 7.99992 8.8389C8.2953 8.83827 8.5948 8.75764 8.84092 8.57427L15.3845 3.66659V12.277L11.9314 8.01143C11.8246 7.87933 11.6307 7.85902 11.4988 7.9659C11.3665 8.07274 11.3462 8.26665 11.4531 8.39874Z" fill="#C1BBF6"/>
</svg>
