<svg width="81" height="81" viewBox="0 0 81 81" fill="none" xmlns="http://www.w3.org/2000/svg">
<path d="M74.5565 65.9811H71.1737V60.7377C71.1737 59.9625 70.5394 59.3282 69.7642 59.3282H66.0008V32.1952H71.0327C71.8079 32.1952 72.4422 31.5609 72.4422 30.7857V25.3168C72.4422 24.8235 72.1885 24.3725 71.7797 24.1188L41.4754 5.24548C41.0243 4.96358 40.4464 4.96358 39.9813 5.24548L9.67695 24.1188C9.2682 24.3725 9.01449 24.8235 9.01449 25.3168V30.7857C9.01449 31.5609 9.64876 32.1952 10.424 32.1952H15.4559V59.3282H11.6925C10.9173 59.3282 10.283 59.9625 10.283 60.7377V65.9811H6.90023C6.125 65.9811 5.49072 66.6153 5.49072 67.3906V74.0998C5.49072 74.875 6.125 75.5093 6.90023 75.5093H74.5565C75.3317 75.5093 75.966 74.875 75.966 74.0998V67.3906C75.966 66.6153 75.3317 65.9811 74.5565 65.9811ZM63.1818 59.3282H58.3894V32.1952H63.1818V59.3282ZM45.9435 59.3282V32.1952H55.5704V59.3282H45.9435ZM25.8863 59.3282V32.1952H35.5132V59.3282H25.8863ZM38.3322 32.1952H43.1245V59.3282H38.3322V32.1952ZM11.8194 26.1062L40.7283 8.10678L69.6373 26.1062V29.3762H64.6054H56.994H44.534H36.9227H24.4768H16.8654H11.8194V26.1062ZM18.2749 32.1952H23.0672V59.3282H18.2749V32.1952ZM13.102 62.1472H16.8654H24.4768H36.9227H44.534H56.9799H64.5913H68.3546V65.9811H13.102V62.1472ZM73.147 72.6903H8.30973V68.8001H11.4106C11.5093 68.8142 11.5939 68.8564 11.6925 68.8564H69.7642C69.8628 68.8564 69.9474 68.8142 70.0461 68.8001H73.147V72.6903Z" fill="#C1BBF6"/>
<path d="M40.7279 26.9803C43.9556 26.9803 46.5773 24.3586 46.5773 21.1309C46.5773 17.9031 43.9556 15.2814 40.7279 15.2814C37.5001 15.2814 34.8784 17.9031 34.8784 21.1309C34.8784 24.3586 37.5001 26.9803 40.7279 26.9803ZM40.7279 18.1004C42.4052 18.1004 43.7583 19.4536 43.7583 21.1309C43.7583 22.8082 42.4052 24.1613 40.7279 24.1613C39.0506 24.1613 37.6974 22.8082 37.6974 21.1309C37.6974 19.4536 39.0506 18.1004 40.7279 18.1004Z" fill="#C1BBF6"/>
</svg>
