<svg width="81" height="81" viewBox="0 0 81 81" fill="none" xmlns="http://www.w3.org/2000/svg">
<g clip-path="url(#clip0_7662_14161)">
<path d="M40.2726 28.4183C31.018 28.4183 22.2951 27.0686 15.7101 24.6193C8.63584 21.9859 4.73926 18.2891 4.73926 14.21C4.73926 10.1309 8.63584 6.43256 15.7101 3.79918C22.2951 1.34985 31.018 0.00012207 40.2726 0.00012207C49.5272 0.00012207 58.2485 1.34985 64.832 3.79918C71.9109 6.43256 75.8028 10.1294 75.8028 14.21C75.8028 18.2906 71.9109 21.9859 64.832 24.6193C58.2485 27.0686 49.5256 28.4183 40.2726 28.4183ZM40.2726 3.14634C21.1861 3.14634 7.88547 8.97628 7.88547 14.21C7.88547 19.4437 21.1861 25.2721 40.2726 25.2721C59.3591 25.2721 72.6582 19.4422 72.6582 14.21C72.6582 8.97785 59.3576 3.14634 40.2726 3.14634Z" fill="#C1BBF6"/>
<path d="M40.2726 45.7932C31.018 45.7932 22.2951 44.4435 15.7101 41.9942C8.63584 39.3608 4.73926 35.664 4.73926 31.5834C4.73926 31.1661 4.905 30.766 5.20001 30.471C5.49503 30.176 5.89515 30.0103 6.31237 30.0103C6.72958 30.0103 7.12971 30.176 7.42472 30.471C7.71974 30.766 7.88547 31.1661 7.88547 31.5834C7.88547 36.8108 21.1861 42.647 40.2726 42.647C59.3591 42.647 72.6582 36.8108 72.6582 31.5834C72.6582 31.1661 72.8239 30.766 73.1189 30.471C73.4139 30.176 73.8141 30.0103 74.2313 30.0103C74.6485 30.0103 75.0486 30.176 75.3436 30.471C75.6387 30.766 75.8044 31.1661 75.8044 31.5834C75.8044 35.664 71.9094 39.3608 64.8335 41.9942C58.2485 44.4435 49.5256 45.7932 40.2726 45.7932Z" fill="#C1BBF6"/>
<path d="M40.2726 63.1682C31.018 63.1682 22.2951 61.8185 15.7101 59.3692C8.63584 56.7358 4.73926 53.039 4.73926 48.9584C4.73926 48.5411 4.905 48.141 5.20001 47.846C5.49503 47.551 5.89515 47.3853 6.31237 47.3853C6.72958 47.3853 7.12971 47.551 7.42472 47.846C7.71974 48.141 7.88547 48.5411 7.88547 48.9584C7.88547 54.1921 21.1861 60.022 40.2726 60.022C59.3591 60.022 72.6582 54.1921 72.6582 48.9584C72.6582 48.5411 72.8239 48.141 73.1189 47.846C73.4139 47.551 73.8141 47.3853 74.2313 47.3853C74.6485 47.3853 75.0486 47.551 75.3436 47.846C75.6387 48.141 75.8044 48.5411 75.8044 48.9584C75.8044 53.039 71.9094 56.7358 64.8335 59.3692C58.2485 61.8232 49.5256 63.1682 40.2726 63.1682Z" fill="#C1BBF6"/>
<path d="M40.2726 80.5434C31.018 80.5434 22.2951 79.1937 15.7101 76.7428C8.63584 74.111 4.73926 70.4142 4.73926 66.3336V14.2102C4.73926 13.793 4.905 13.3929 5.20001 13.0978C5.49503 12.8028 5.89515 12.6371 6.31237 12.6371C6.72958 12.6371 7.12971 12.8028 7.42472 13.0978C7.71974 13.3929 7.88547 13.793 7.88547 14.2102V66.3336C7.88547 71.5673 21.1861 77.3972 40.2726 77.3972C59.3591 77.3972 72.6582 71.5673 72.6582 66.3336V14.2102C72.6582 13.793 72.8239 13.3929 73.1189 13.0978C73.4139 12.8028 73.8141 12.6371 74.2313 12.6371C74.6485 12.6371 75.0486 12.8028 75.3436 13.0978C75.6387 13.3929 75.8044 13.793 75.8044 14.2102V66.3336C75.8044 70.4142 71.9094 74.111 64.8335 76.7428C58.2485 79.1937 49.5256 80.5434 40.2726 80.5434Z" fill="#C1BBF6"/>
<path d="M66.3338 33.1583C66.2308 33.158 66.128 33.1475 66.0271 33.1268C65.9264 33.1065 65.8278 33.0765 65.7329 33.0372C65.6376 32.9981 65.5464 32.9496 65.4608 32.8924C65.2882 32.7786 65.1405 32.6308 65.0266 32.4583C64.9701 32.3722 64.9216 32.2811 64.8819 32.1861C64.8425 32.0912 64.8125 31.9927 64.7922 31.8919C64.7503 31.689 64.7503 31.4797 64.7922 31.2768C64.8317 31.0741 64.9112 30.8812 65.0259 30.7094C65.1407 30.5377 65.2885 30.3904 65.4608 30.2764C65.5464 30.2192 65.6376 30.1707 65.7329 30.1316C65.8278 30.0923 65.9264 30.0623 66.0271 30.042C66.2301 30.0011 66.4392 30.0011 66.6422 30.042C66.9463 30.1035 67.2258 30.2528 67.446 30.4714C67.5188 30.5455 67.5846 30.6261 67.6427 30.7121C67.757 30.8832 67.8366 31.0751 67.877 31.2768C67.9169 31.4799 67.9169 31.6888 67.877 31.8919C67.8567 31.9927 67.8267 32.0912 67.7874 32.1861C67.7476 32.2811 67.6992 32.3722 67.6427 32.4583C67.585 32.5441 67.5191 32.6242 67.446 32.6974C67.3732 32.7704 67.2931 32.8358 67.2069 32.8924C67.1216 32.9492 67.031 32.9977 66.9363 33.0372C66.8413 33.0763 66.7428 33.1063 66.6422 33.1268C66.5407 33.1474 66.4374 33.158 66.3338 33.1583Z" fill="#C1BBF6"/>
<path d="M60.0165 34.7375C59.9135 34.7372 59.8107 34.7267 59.7098 34.706C59.609 34.6857 59.5105 34.6557 59.4156 34.6164C59.3203 34.5773 59.2291 34.5288 59.1434 34.4717C59.0573 34.415 58.9771 34.3496 58.9043 34.2766C58.7576 34.1306 58.6415 33.9568 58.563 33.7653C58.5236 33.6704 58.4936 33.5719 58.4733 33.4712C58.4526 33.3676 58.4426 33.2622 58.4434 33.1565C58.4428 33.0509 58.4528 32.9455 58.4733 32.8419C58.494 32.7413 58.5241 32.6428 58.563 32.5477C58.6422 32.3571 58.7582 32.1839 58.9043 32.0381C58.9771 31.9645 59.0572 31.8986 59.1434 31.8414C59.2291 31.7843 59.3203 31.7358 59.4156 31.6967C59.5105 31.6574 59.609 31.6273 59.7098 31.607C59.9122 31.5661 60.1208 31.5661 60.3233 31.607C60.424 31.6273 60.5225 31.6574 60.6174 31.6967C60.7127 31.7358 60.8039 31.7843 60.8896 31.8414C61.0618 31.9565 61.2093 32.1046 61.3238 32.2772C61.3806 32.3625 61.429 32.4531 61.4685 32.5477C61.5081 32.6426 61.5381 32.7411 61.5582 32.8419C61.5792 32.9455 61.5897 33.0509 61.5896 33.1565C61.5899 33.2622 61.5793 33.3676 61.5582 33.4712C61.5386 33.5721 61.5085 33.6707 61.4685 33.7653C61.4291 33.8605 61.3806 33.9516 61.3238 34.0375C61.2099 34.2101 61.0622 34.3578 60.8896 34.4717C60.8039 34.5288 60.7127 34.5773 60.6174 34.6164C60.5225 34.6557 60.424 34.6857 60.3233 34.706C60.2223 34.7267 60.1196 34.7372 60.0165 34.7375Z" fill="#C1BBF6"/>
<path d="M53.6986 36.3169C53.5929 36.317 53.4875 36.3065 53.3839 36.2855C53.2833 36.2649 53.1848 36.2349 53.0898 36.1958C52.8014 36.0784 52.5552 35.8766 52.3834 35.6169C52.3263 35.5312 52.2778 35.44 52.2387 35.3448C52.1994 35.2498 52.1694 35.1513 52.1491 35.0506C52.1289 34.9496 52.1189 34.8468 52.1192 34.7438C52.1185 34.6382 52.1286 34.5328 52.1491 34.4292C52.1724 34.3289 52.2051 34.2309 52.2466 34.1366C52.3259 33.9464 52.4413 33.7733 52.5864 33.6269C52.6605 33.5542 52.741 33.4884 52.8271 33.4303C52.9124 33.3735 53.003 33.325 53.0976 33.2856C53.1926 33.2464 53.2911 33.2164 53.3918 33.1959C53.5948 33.155 53.8039 33.155 54.0069 33.1959C54.1076 33.2162 54.2061 33.2462 54.3011 33.2856C54.396 33.3253 54.4871 33.3738 54.5732 33.4303C54.6588 33.4884 54.7388 33.5542 54.8123 33.6269C54.8854 33.6997 54.9507 33.7799 55.0074 33.866C55.0642 33.9514 55.1127 34.042 55.1521 34.1366C55.191 34.2317 55.221 34.3302 55.2418 34.4308C55.2628 34.5343 55.2734 34.6397 55.2732 34.7454C55.273 34.8484 55.2624 34.9512 55.2418 35.0522C55.2215 35.1529 55.1915 35.2514 55.1521 35.3463C55.113 35.4416 55.0645 35.5328 55.0074 35.6185C54.9507 35.7046 54.8854 35.7848 54.8123 35.8576C54.7392 35.9303 54.6591 35.9956 54.5732 36.0527C54.4871 36.1092 54.396 36.1576 54.3011 36.1974C54.2061 36.2367 54.1076 36.2667 54.0069 36.287C53.9054 36.3072 53.8021 36.3172 53.6986 36.3169Z" fill="#C1BBF6"/>
<path d="M66.3339 50.5314C66.2309 50.5317 66.1281 50.5217 66.0271 50.5015C65.9264 50.4812 65.8279 50.4512 65.7329 50.4118C65.6376 50.3727 65.5465 50.3243 65.4608 50.2671C65.3746 50.2099 65.2944 50.144 65.2217 50.0705C64.9275 49.775 64.7619 49.3753 64.7607 48.9583C64.7606 48.8526 64.7711 48.7472 64.7922 48.6437C64.8125 48.5429 64.8425 48.4444 64.8819 48.3495C64.9216 48.2545 64.9701 48.1634 65.0266 48.0774C65.0836 47.9914 65.149 47.9114 65.2217 47.8382C65.2945 47.7652 65.3746 47.6998 65.4608 47.6432C65.5465 47.586 65.6376 47.5375 65.7329 47.4984C65.8279 47.4591 65.9264 47.4291 66.0271 47.4088C66.2301 47.3679 66.4392 47.3679 66.6422 47.4088C66.844 47.4492 67.0358 47.5289 67.2069 47.6432C67.2931 47.6998 67.3732 47.7652 67.446 47.8382C67.5188 47.9118 67.5846 47.9918 67.6427 48.0774C67.6992 48.1634 67.7476 48.2545 67.7874 48.3495C67.8267 48.4444 67.8568 48.5429 67.8771 48.6437C67.8977 48.7473 67.9077 48.8527 67.907 48.9583C67.9058 49.3753 67.7402 49.775 67.446 50.0705C67.3733 50.144 67.2931 50.2099 67.2069 50.2671C67.0358 50.3814 66.844 50.4611 66.6422 50.5015C66.5406 50.5216 66.4374 50.5316 66.3339 50.5314Z" fill="#C1BBF6"/>
<path d="M60.0165 52.1109C59.9135 52.1112 59.8107 52.1012 59.7097 52.081C59.609 52.0607 59.5105 52.0307 59.4156 51.9914C59.3203 51.9523 59.2291 51.9038 59.1434 51.8467C59.0572 51.79 58.9771 51.7246 58.9043 51.6516C58.8316 51.5781 58.7658 51.498 58.7077 51.4125C58.6511 51.3264 58.6027 51.2353 58.5629 51.1403C58.5236 51.0454 58.4936 50.9469 58.4733 50.8462C58.4334 50.6431 58.4334 50.4342 58.4733 50.2311C58.4936 50.1303 58.5236 50.0318 58.5629 49.9369C58.6027 49.8419 58.6511 49.7508 58.7077 49.6648C58.7658 49.5792 58.8316 49.4992 58.9043 49.4256C58.9771 49.3526 59.0572 49.2872 59.1434 49.2306C59.2291 49.1734 59.3203 49.1249 59.4156 49.0859C59.5105 49.0465 59.609 49.0165 59.7097 48.9962C59.9122 48.9553 60.1208 48.9553 60.3232 48.9962C60.424 49.0165 60.5225 49.0465 60.6174 49.0859C60.7127 49.1249 60.8039 49.1734 60.8896 49.2306C60.9757 49.2872 61.0559 49.3526 61.1287 49.4256C61.2014 49.4988 61.2667 49.5788 61.3237 49.6648C61.3802 49.7508 61.4287 49.8419 61.4685 49.9369C61.5085 50.0316 61.5386 50.1302 61.5581 50.2311C61.6001 50.434 61.6001 50.6433 61.5581 50.8462C61.5386 50.9471 61.5085 51.0457 61.4685 51.1403C61.4287 51.2353 61.3802 51.3264 61.3237 51.4125C61.2667 51.4984 61.2014 51.5785 61.1287 51.6516C61.0559 51.7246 60.9757 51.79 60.8896 51.8467C60.8039 51.9038 60.7127 51.9523 60.6174 51.9914C60.5225 52.0307 60.424 52.0607 60.3232 52.081C60.2222 52.1012 60.1195 52.1112 60.0165 52.1109Z" fill="#C1BBF6"/>
<path d="M53.6985 53.6905C53.5929 53.6911 53.4875 53.6811 53.3839 53.6606C53.2833 53.64 53.1848 53.61 53.0897 53.5709C52.8993 53.4911 52.7258 53.3758 52.5785 53.2311C52.4327 53.0847 52.3173 52.9109 52.2387 52.7199C52.1994 52.6249 52.1693 52.5264 52.149 52.4257C52.129 52.3247 52.1189 52.2219 52.1191 52.1189C52.1199 51.7017 52.285 51.3016 52.5785 51.0052C52.6526 50.9329 52.7332 50.8676 52.8192 50.8101C52.9045 50.7533 52.9951 50.7048 53.0897 50.6654C53.1848 50.6263 53.2833 50.5962 53.3839 50.5757C53.6892 50.5138 54.006 50.5443 54.2938 50.6634C54.5816 50.7825 54.8273 50.9847 54.9995 51.2443C55.056 51.3303 55.1045 51.4215 55.1442 51.5164C55.1836 51.6114 55.2136 51.7099 55.2339 51.8106C55.2758 52.0135 55.2758 52.2228 55.2339 52.4257C55.2136 52.5264 55.1836 52.6249 55.1442 52.7199C55.1045 52.8148 55.056 52.9059 54.9995 52.992C54.8856 53.1646 54.7379 53.3123 54.5653 53.4262C54.4793 53.4827 54.3882 53.5311 54.2932 53.5709C54.1983 53.6102 54.0997 53.6403 53.999 53.6606C53.9001 53.6802 53.7994 53.6902 53.6985 53.6905Z" fill="#C1BBF6"/>
<path d="M66.3339 67.9066C66.2309 67.9069 66.1281 67.8969 66.0271 67.8767C65.9264 67.8564 65.8279 67.8264 65.7329 67.7871C65.6377 67.7485 65.5465 67.7005 65.4608 67.6439C65.3749 67.5862 65.2949 67.5204 65.2217 67.4473C65.1486 67.3745 65.0833 67.2943 65.0266 67.2082C64.9698 67.1228 64.9213 67.0322 64.8819 66.9376C64.8428 66.8426 64.8127 66.7441 64.7922 66.6434C64.7712 66.5399 64.7606 66.4345 64.7607 66.3288C64.761 66.2257 64.7715 66.123 64.7922 66.022C64.8125 65.9213 64.8425 65.8228 64.8819 65.7279C64.921 65.6326 64.9694 65.5414 65.0266 65.4557C65.1405 65.2831 65.2882 65.1354 65.4608 65.0215C65.5465 64.9644 65.6376 64.9159 65.7329 64.8768C65.8279 64.8375 65.9264 64.8074 66.0271 64.7871C66.2301 64.7462 66.4392 64.7462 66.6422 64.7871C66.7429 64.8077 66.8413 64.8377 66.9364 64.8768C67.031 64.9162 67.1216 64.9647 67.2069 65.0215C67.2931 65.0782 67.3732 65.1436 67.446 65.2166C67.5191 65.2898 67.585 65.3699 67.6427 65.4557C67.6998 65.5414 67.7483 65.6326 67.7874 65.7279C67.8267 65.8228 67.8568 65.9213 67.8771 66.022C67.8972 66.123 67.9072 66.2258 67.907 66.3288C67.9076 66.4344 67.8976 66.5398 67.8771 66.6434C67.8565 66.7441 67.8265 66.8426 67.7874 66.9376C67.6889 67.177 67.5329 67.3884 67.3331 67.553C67.1333 67.7177 66.896 67.8305 66.6422 67.8814C66.5405 67.8999 66.4372 67.9084 66.3339 67.9066Z" fill="#C1BBF6"/>
<path d="M60.0165 69.4859C59.9135 69.4862 59.8107 69.4762 59.7097 69.4561C59.609 69.4357 59.5105 69.4057 59.4155 69.3664C59.3202 69.3273 59.2291 69.2788 59.1434 69.2217C58.9712 69.1061 58.8232 68.9581 58.7076 68.7859C58.6519 68.7002 58.604 68.6096 58.5645 68.5153C58.5244 68.4207 58.4944 68.3221 58.4748 68.2212C58.4538 68.1176 58.4433 68.0122 58.4434 67.9065C58.4436 67.8035 58.4542 67.7007 58.4748 67.5998C58.4944 67.4989 58.5244 67.4003 58.5645 67.3056C58.6037 67.2107 58.6516 67.1196 58.7076 67.0335C58.7653 66.9476 58.8312 66.8675 58.9043 66.7944C58.9771 66.7213 59.0572 66.6559 59.1434 66.5993C59.2291 66.5421 59.3202 66.4937 59.4155 66.4546C59.5105 66.4152 59.609 66.3852 59.7097 66.3649C59.9122 66.324 60.1208 66.324 60.3232 66.3649C60.4239 66.3852 60.5225 66.4152 60.6174 66.4546C60.7127 66.4937 60.8038 66.5421 60.8895 66.5993C60.9757 66.6559 61.0558 66.7213 61.1287 66.7944C61.2014 66.8675 61.2667 66.9476 61.3237 67.0335C61.3809 67.1192 61.4293 67.2103 61.4684 67.3056C61.5085 67.4003 61.5385 67.4989 61.5581 67.5998C61.5788 67.7007 61.5893 67.8035 61.5896 67.9065C61.5897 68.0122 61.5791 68.1176 61.5581 68.2212C61.5385 68.3221 61.5085 68.4207 61.4684 68.5153C61.429 68.61 61.3805 68.7006 61.3237 68.7859C61.2671 68.8721 61.2017 68.9522 61.1287 69.025C61.0555 69.0981 60.9754 69.164 60.8895 69.2217C60.8038 69.2788 60.7127 69.3273 60.6174 69.3664C60.5225 69.4057 60.4239 69.4357 60.3232 69.4561C60.2222 69.4762 60.1195 69.4862 60.0165 69.4859Z" fill="#C1BBF6"/>
<path d="M53.6985 71.0669C53.5929 71.067 53.4875 71.0565 53.3839 71.0355C53.2833 71.0149 53.1848 70.9849 53.0897 70.9458C52.8024 70.8266 52.5568 70.6249 52.384 70.3662C52.2112 70.1075 52.1191 69.8033 52.1191 69.4922C52.1189 69.3892 52.129 69.2865 52.149 69.1855C52.1693 69.0847 52.1994 68.9862 52.2387 68.8913C52.3173 68.7002 52.4327 68.5265 52.5785 68.38C52.7258 68.2354 52.8993 68.12 53.0897 68.0403C53.1848 68.0011 53.2833 67.9711 53.3839 67.9506C53.5869 67.9097 53.796 67.9097 53.999 67.9506C54.0997 67.9709 54.1983 68.0009 54.2932 68.0403C54.3882 68.08 54.4793 68.1285 54.5653 68.185C54.7379 68.2989 54.8856 68.4466 54.9995 68.6192C55.056 68.7052 55.1045 68.7963 55.1442 68.8913C55.1836 68.9862 55.2136 69.0847 55.2339 69.1855C55.2545 69.2864 55.265 69.3892 55.2654 69.4922C55.2654 69.7512 55.2015 70.0061 55.0794 70.2344C54.9573 70.4627 54.7807 70.6574 54.5653 70.8011C54.4793 70.8576 54.3882 70.906 54.2932 70.9458C54.1983 70.9851 54.0997 71.0151 53.999 71.0355C53.9001 71.0557 53.7995 71.0662 53.6985 71.0669Z" fill="#C1BBF6"/>
</g>
<defs>
<clipPath id="clip0_7662_14161">
<rect width="80.5434" height="80.5434" fill="white"/>
</clipPath>
</defs>
</svg>
