<?xml version="1.0" encoding="UTF-8" standalone="no"?>
<svg
   width="81"
   height="81"
   viewBox="0 0 81 81"
   fill="none"
   version="1.1"
   id="svg4"
   sodipodi:docname="ai-resources.svg"
   inkscape:version="1.4 (e7c3feb1, 2024-10-09)"
   xmlns:inkscape="http://www.inkscape.org/namespaces/inkscape"
   xmlns:sodipodi="http://sodipodi.sourceforge.net/DTD/sodipodi-0.dtd"
   xmlns="http://www.w3.org/2000/svg"
   xmlns:svg="http://www.w3.org/2000/svg">
  <defs
     id="defs4" />
  <sodipodi:namedview
     id="namedview4"
     pagecolor="#ffffff"
     bordercolor="#000000"
     borderopacity="0.25"
     inkscape:showpageshadow="2"
     inkscape:pageopacity="0.0"
     inkscape:pagecheckerboard="0"
     inkscape:deskcolor="#d1d1d1"
     inkscape:zoom="3.2274621"
     inkscape:cx="31.758699"
     inkscape:cy="70.953582"
     inkscape:window-width="1728"
     inkscape:window-height="1051"
     inkscape:window-x="0"
     inkscape:window-y="38"
     inkscape:window-maximized="0"
     inkscape:current-layer="svg4" />
  <path
     d="M 21.63,61.256818 H 48.57904 M 21.63,49.386924 H 48.57904 M 21.63,37.547937 H 48.57904 M 64.76561,73.127122 H 16.2345 c -1.42865,-0.008 -2.79673,-0.63652 -3.80692,-1.74762 -1.01025,-1.1111 -1.58111,-2.61609 -1.58852,-4.18753 V 28.050801 c 0,-1.31048 1.06239,-2.372876 2.37287,-2.372876 h 46.15806 m 5.39562,47.449197 c -1.42882,-0.008 -2.79685,-0.63652 -3.8071,-1.74762 -1.01025,-1.1111 -1.5811,-2.61609 -1.58852,-4.18753 m 5.39562,5.93515 c 1.43085,0 2.80296,-0.62525 3.81499,-1.73872 1.01203,-1.11288 1.58034,-2.62262 1.58034,-4.19643 V 16.180788 c 0,-1.310479 -1.06246,-2.372875 -2.37288,-2.372875 H 54.92619 c -0.67722,0 -1.32223,-0.289372 -1.77248,-0.795269 L 49.28687,8.6681477 C 48.83662,8.1623097 48.19167,7.8728779 47.51439,7.8728779 H 24.00288 c -1.31054,0 -2.37288,1.0623957 -2.37288,2.3728761 V 23.30505 c 0,1.310539 1.06234,2.372875 2.37288,2.372875 h 35.36711 m 5.39562,47.449197 c -1.43108,0 -2.80349,-0.62525 -3.81528,-1.73872 -1.01186,-1.11288 -1.58034,-2.62262 -1.58034,-4.19643 m -0.10263,-43.284064 0.10263,43.284064"
     stroke="#c1bbf6"
     stroke-width="4.74575"
     stroke-miterlimit="10"
     id="path1-3"
     sodipodi:nodetypes="ccccccccccssccscccssssccssssscccccc"
     style="stroke-width:3.5;stroke-dasharray:none" />
</svg>
