<svg width="17" height="16" viewBox="0 0 17 16" fill="none" xmlns="http://www.w3.org/2000/svg">
<path d="M14.5384 7.08628V5.2381C14.5384 5.18269 14.5088 5.13147 14.4608 5.10377L8.55769 1.69558C8.5097 1.66788 8.45057 1.66788 8.40258 1.69558L2.49943 5.10377C2.45144 5.13147 2.42188 5.18269 2.42188 5.2381V12.0544C2.42188 12.1099 2.45144 12.1611 2.49943 12.1888L8.40255 15.5969C8.45054 15.6246 8.50967 15.6246 8.55766 15.5969L14.4608 12.1888C14.5088 12.1611 14.5383 12.1099 14.5383 12.0544V9.86783" stroke="#C1BBF6" stroke-width="0.5" stroke-miterlimit="10" stroke-linecap="round" stroke-linejoin="round"/>
<path d="M8.49219 0.38208V8.98943" stroke="#C1BBF6" stroke-width="0.5" stroke-miterlimit="10" stroke-linecap="round" stroke-linejoin="round"/>
<path d="M8.49219 8.98975L15.5065 12.6535" stroke="#C1BBF6" stroke-width="0.5" stroke-miterlimit="10" stroke-linecap="round" stroke-linejoin="round"/>
<path d="M1.49219 12.6535L8.49182 8.98975" stroke="#C1BBF6" stroke-width="0.5" stroke-miterlimit="10" stroke-linecap="round" stroke-linejoin="round"/>
<path d="M4.35156 13.2657L10.3396 9.95776" stroke="#C1BBF6" stroke-width="0.5" stroke-miterlimit="10" stroke-linecap="round" stroke-linejoin="round"/>
<path d="M6.33594 14.3072L12.324 10.9993" stroke="#C1BBF6" stroke-width="0.5" stroke-miterlimit="10" stroke-linecap="round" stroke-linejoin="round"/>
<path d="M6.67188 9.98926L12.5713 13.2765" stroke="#C1BBF6" stroke-width="0.5" stroke-miterlimit="10" stroke-linecap="round" stroke-linejoin="round"/>
<path d="M4.66406 11.1858L10.5298 14.4541" stroke="#C1BBF6" stroke-width="0.5" stroke-miterlimit="10" stroke-linecap="round" stroke-linejoin="round"/>
<circle cx="14.529" cy="8.47723" r="0.310233" fill="#C1BBF6"/>
</svg>
