<svg width="143" height="143" viewBox="0 0 143 143" fill="none" xmlns="http://www.w3.org/2000/svg">
<path d="M36.3784 71.533C36.3784 52.1622 52.1865 36.4276 71.5001 36.4276C90.8137 36.4276 106.622 52.1622 106.622 71.533C106.622 90.9037 90.8798 106.638 71.5001 106.638" stroke="#C1BBF6" stroke-width="4.46875" stroke-miterlimit="10" stroke-linecap="round"/>
<path d="M3.30835 71.5332C3.30835 33.8495 33.8662 3.30579 71.5012 3.30579C109.136 3.30579 139.694 33.8495 139.694 71.5332C139.694 109.217 109.202 139.695 71.5012 139.695H13.2297" stroke="#C1BBF6" stroke-width="4.46875" stroke-miterlimit="10" stroke-linecap="round"/>
<path d="M19.8415 71.5333C19.8415 43.0391 43.0575 19.9 71.4988 19.9C99.9401 19.9 123.156 43.0391 123.156 71.5333C123.156 100.028 100.006 123.167 71.4988 123.167L13.2273 122.307" stroke="#C1BBF6" stroke-width="4.46875" stroke-miterlimit="10" stroke-linecap="round"/>
<path d="M36.3772 71.533C36.3772 52.1622 52.1852 36.4276 71.4988 36.4276C90.8124 36.4276 106.62 52.1622 106.62 71.533C106.62 90.9037 90.8785 106.638 71.4988 106.638H13.2273" stroke="#C1BBF6" stroke-width="4.46875" stroke-miterlimit="10" stroke-linecap="round"/>
<path d="M0 106.638C0 108.464 1.4815 109.944 3.30712 109.944C5.13275 109.944 6.61425 108.464 6.61425 106.638C6.61425 104.813 5.13275 103.333 3.30712 103.333C1.4815 103.333 0 104.813 0 106.638Z" fill="#C1BBF6"/>
<path d="M0 122.307C0 124.132 1.48149 125.612 3.30712 125.612C5.13275 125.612 6.61425 124.132 6.61425 122.307C6.61425 120.481 5.13275 119.001 3.30712 119.001C1.48149 119.001 0 120.481 0 122.307Z" fill="#C1BBF6"/>
<path d="M0 139.694C0 141.52 1.48149 143 3.30712 143C5.13275 143 6.61425 141.52 6.61425 139.694C6.61425 137.869 5.13275 136.389 3.30712 136.389C1.48149 136.389 0 137.869 0 139.694Z" fill="#C1BBF6"/>
</svg>
