<svg width="17" height="16" viewBox="0 0 17 16" fill="none" xmlns="http://www.w3.org/2000/svg">
<path d="M8.49679 3.02312C8.95238 3.02312 9.3217 2.65379 9.3217 2.1982C9.3217 1.74262 8.95238 1.37329 8.49679 1.37329C8.0412 1.37329 7.67188 1.74262 7.67188 2.1982C7.67188 2.65379 8.0412 3.02312 8.49679 3.02312Z" stroke="#C1BBF6" stroke-width="0.5" stroke-miterlimit="10" stroke-linecap="round" stroke-linejoin="round"/>
<path d="M8.49679 14.6269C8.95238 14.6269 9.3217 14.2576 9.3217 13.802C9.3217 13.3464 8.95238 12.9771 8.49679 12.9771C8.0412 12.9771 7.67188 13.3464 7.67188 13.802C7.67188 14.2576 8.0412 14.6269 8.49679 14.6269Z" stroke="#C1BBF6" stroke-width="0.5" stroke-miterlimit="10" stroke-linecap="round" stroke-linejoin="round"/>
<path d="M3.49679 5.93791C3.95238 5.93791 4.3217 5.56859 4.3217 5.113C4.3217 4.65741 3.95238 4.28809 3.49679 4.28809C3.0412 4.28809 2.67188 4.65741 2.67188 5.113C2.67188 5.56859 3.0412 5.93791 3.49679 5.93791Z" stroke="#C1BBF6" stroke-width="0.5" stroke-miterlimit="10" stroke-linecap="round" stroke-linejoin="round"/>
<path d="M13.4968 11.7121C13.9524 11.7121 14.3217 11.3428 14.3217 10.8872C14.3217 10.4316 13.9524 10.0623 13.4968 10.0623C13.0412 10.0623 12.6719 10.4316 12.6719 10.8872C12.6719 11.3428 13.0412 11.7121 13.4968 11.7121Z" stroke="#C1BBF6" stroke-width="0.5" stroke-miterlimit="10" stroke-linecap="round" stroke-linejoin="round"/>
<path d="M3.49679 11.7121C3.95238 11.7121 4.3217 11.3428 4.3217 10.8872C4.3217 10.4316 3.95238 10.0623 3.49679 10.0623C3.0412 10.0623 2.67188 10.4316 2.67188 10.8872C2.67188 11.3428 3.0412 11.7121 3.49679 11.7121Z" stroke="#C1BBF6" stroke-width="0.5" stroke-miterlimit="10" stroke-linecap="round" stroke-linejoin="round"/>
<path d="M13.4968 5.93791C13.9524 5.93791 14.3217 5.56859 14.3217 5.113C14.3217 4.65741 13.9524 4.28809 13.4968 4.28809C13.0412 4.28809 12.6719 4.65741 12.6719 5.113C12.6719 5.56859 13.0412 5.93791 13.4968 5.93791Z" stroke="#C1BBF6" stroke-width="0.5" stroke-miterlimit="10" stroke-linecap="round" stroke-linejoin="round"/>
<path d="M8.5 7.17529V8.82512" stroke="#C1BBF6" stroke-width="0.5" stroke-miterlimit="10" stroke-linecap="round" stroke-linejoin="round"/>
<path d="M7.67188 8.00024H9.3217" stroke="#C1BBF6" stroke-width="0.5" stroke-miterlimit="10" stroke-linecap="round" stroke-linejoin="round"/>
<path d="M9.21094 13.3892L12.7827 11.2996" stroke="#C1BBF6" stroke-width="0.5" stroke-miterlimit="10" stroke-linecap="round" stroke-linejoin="round"/>
<path d="M13.5 10.0623V5.93799" stroke="#C1BBF6" stroke-width="0.5" stroke-miterlimit="10" stroke-linecap="round" stroke-linejoin="round"/>
<path d="M12.7827 4.70027L9.21094 2.6106" stroke="#C1BBF6" stroke-width="0.5" stroke-miterlimit="10" stroke-linecap="round" stroke-linejoin="round"/>
<path d="M7.78268 2.6106L4.21094 4.70027" stroke="#C1BBF6" stroke-width="0.5" stroke-miterlimit="10" stroke-linecap="round" stroke-linejoin="round"/>
<path d="M3.49219 5.93799V10.0623" stroke="#C1BBF6" stroke-width="0.5" stroke-miterlimit="10" stroke-linecap="round" stroke-linejoin="round"/>
<path d="M4.21094 11.2996L7.78268 13.3892" stroke="#C1BBF6" stroke-width="0.5" stroke-miterlimit="10" stroke-linecap="round" stroke-linejoin="round"/>
</svg>
