<svg width="17" height="16" viewBox="0 0 17 16" fill="none" xmlns="http://www.w3.org/2000/svg">
<path d="M9.31677 1.4873H7.69531V3.10876H9.31677V1.4873Z" stroke="#C1BBF6" stroke-width="0.4" stroke-miterlimit="10" stroke-linecap="round" stroke-linejoin="round"/>
<path d="M9.31677 12.8911H7.69531V14.5126H9.31677V12.8911Z" stroke="#C1BBF6" stroke-width="0.4" stroke-miterlimit="10" stroke-linecap="round" stroke-linejoin="round"/>
<path d="M1.99219 7.18958L1.99219 8.81104L3.61364 8.81104L3.61364 7.18958L1.99219 7.18958Z" stroke="#C1BBF6" stroke-width="0.4" stroke-miterlimit="10" stroke-linecap="round" stroke-linejoin="round"/>
<path d="M13.3906 7.18958L13.3906 8.81104L15.0121 8.81104L15.0121 7.18958L13.3906 7.18958Z" stroke="#C1BBF6" stroke-width="0.4" stroke-miterlimit="10" stroke-linecap="round" stroke-linejoin="round"/>
<path d="M6.07104 2.32495H2.82812V5.56786H6.07104V2.32495Z" stroke="#C1BBF6" stroke-width="0.4" stroke-miterlimit="10" stroke-linecap="round" stroke-linejoin="round"/>
<path d="M10.9347 5.56812H6.07031V10.4325H10.9347V5.56812Z" stroke="#C1BBF6" stroke-width="0.4" stroke-miterlimit="10" stroke-linecap="round" stroke-linejoin="round"/>
<path d="M14.1804 2.32495H10.9375V5.56786H14.1804V2.32495Z" stroke="#C1BBF6" stroke-width="0.4" stroke-miterlimit="10" stroke-linecap="round" stroke-linejoin="round"/>
<path d="M6.07104 10.4326H2.82812V13.6755H6.07104V10.4326Z" stroke="#C1BBF6" stroke-width="0.4" stroke-miterlimit="10" stroke-linecap="round" stroke-linejoin="round"/>
<path d="M14.1804 10.4326H10.9375V13.6755H14.1804V10.4326Z" stroke="#C1BBF6" stroke-width="0.4" stroke-miterlimit="10" stroke-linecap="round" stroke-linejoin="round"/>
</svg>
