<svg width="17" height="16" viewBox="0 0 17 16" fill="none" xmlns="http://www.w3.org/2000/svg">
<g clip-path="url(#clip0_1944_6093)">
<path fill-rule="evenodd" clip-rule="evenodd" d="M12.9844 2.02344C12.5718 2.02344 12.2373 2.35792 12.2373 2.77051C12.2373 3.1831 12.5718 3.51758 12.9844 3.51758C13.397 3.51758 13.7315 3.1831 13.7315 2.77051C13.7315 2.35792 13.397 2.02344 12.9844 2.02344ZM10.8707 2.02344C11.1784 1.15296 12.0086 0.529297 12.9844 0.529297C14.2222 0.529297 15.2256 1.53273 15.2256 2.77051C15.2256 4.0083 14.2222 5.01173 12.9844 5.01173C12.0086 5.01173 11.1784 4.38806 10.8707 3.51758H5.51368C5.10109 3.51758 4.76661 3.85206 4.76661 4.26466V6.26735L5.71396 5.24975C5.9951 4.94776 6.46782 4.93086 6.76981 5.212C7.07178 5.49314 7.08866 5.96586 6.80755 6.26785L4.83047 8.39155C4.38914 8.86557 3.64995 8.86557 3.20862 8.39155L1.23153 6.26785C0.95039 5.96586 0.967288 5.49314 1.26928 5.212C1.57127 4.93086 2.04398 4.94776 2.32512 5.24975L3.27247 6.26735V4.26466C3.27247 3.02687 4.2759 2.02344 5.51368 2.02344H10.8707ZM13.7315 9.7327L14.6788 10.7503C14.96 11.0523 15.4327 11.0691 15.7347 10.788C16.0366 10.5069 16.0535 10.0341 15.7724 9.73217L13.7953 7.60847C13.354 7.13446 12.6148 7.13446 12.1735 7.60847L10.1964 9.73217C9.91528 10.0341 9.93216 10.5069 10.2341 10.788C10.5361 11.0691 11.0088 11.0523 11.29 10.7503L12.2373 9.7327V11.7354C12.2373 12.148 11.9029 12.4824 11.4903 12.4824H6.13323C5.82556 11.612 4.99538 10.9883 4.01954 10.9883C2.78175 10.9883 1.77832 11.9917 1.77832 13.2295C1.77832 14.4673 2.78175 15.4707 4.01954 15.4707C4.99538 15.4707 5.82556 14.8471 6.13323 13.9766H11.4903C12.7281 13.9766 13.7315 12.9732 13.7315 11.7354V9.7327ZM4.01954 12.4824C3.60695 12.4824 3.27247 12.8169 3.27247 13.2295C3.27247 13.6421 3.60695 13.9766 4.01954 13.9766C4.43214 13.9766 4.76661 13.6421 4.76661 13.2295C4.76661 12.8169 4.43214 12.4824 4.01954 12.4824Z" fill="#C1BBF6" stroke="#1C1C1C" stroke-width="0.756747"/>
</g>
<defs>
<clipPath id="clip0_1944_6093">
<rect width="16" height="16" fill="white" transform="translate(0.5)"/>
</clipPath>
</defs>
</svg>
