<svg width="17" height="16" viewBox="0 0 17 16" fill="none" xmlns="http://www.w3.org/2000/svg">
<path fill-rule="evenodd" clip-rule="evenodd" d="M10.5629 1.69756C9.1753 1.55812 7.76673 2.03617 6.74519 3.05309C6.74487 3.0534 6.74456 3.05371 6.74425 3.05403C5.37958 4.41869 5.06189 6.4052 5.71625 8.1014L2.72392 11.0937C1.98786 11.8298 1.98786 13.0382 2.72392 13.7743C3.45998 14.5103 4.66839 14.5103 5.40445 13.7743L8.39679 10.7819C10.093 11.4363 12.0795 11.1186 13.4442 9.75394C14.8057 8.39189 15.2071 6.33747 14.4583 4.56315C14.427 4.48875 14.3773 4.42358 14.3138 4.37379C14.2503 4.32399 14.1751 4.29125 14.0954 4.27864C14.0157 4.26604 13.9341 4.27399 13.8584 4.30176C13.7826 4.32953 13.7152 4.3762 13.6625 4.43733L11.2448 7.23813L9.50803 6.99015L9.26006 5.2534L12.0535 2.84123C12.1144 2.78859 12.1609 2.72128 12.1886 2.64568C12.2163 2.57007 12.2243 2.48865 12.2118 2.40911C12.1993 2.32956 12.1667 2.25452 12.1172 2.19106C12.0676 2.1276 12.0027 2.07781 11.9286 2.0464C11.4858 1.85968 11.0254 1.74404 10.5629 1.69756ZM10.4666 2.63949C10.5634 2.64925 10.6563 2.69526 10.7526 2.71258L8.44399 4.70563C8.38393 4.75755 8.33787 4.82374 8.31006 4.89811C8.28225 4.97249 8.27358 5.05266 8.28485 5.13125L8.6198 7.4759C8.63422 7.57754 8.68127 7.67174 8.75386 7.74433C8.82645 7.81692 8.92065 7.86397 9.02229 7.8784L11.3669 8.21335C11.4456 8.2245 11.5258 8.21568 11.6002 8.18771C11.6746 8.15974 11.7407 8.11351 11.7926 8.05327L13.7912 5.73823C14.0081 6.94235 13.6633 8.19371 12.7734 9.08403C11.6037 10.2532 9.86795 10.4952 8.46065 9.82332C8.37232 9.78126 8.27313 9.76756 8.1767 9.78413C8.08028 9.8007 7.99136 9.84672 7.92214 9.91585L4.73457 13.1034C4.36058 13.4774 3.76782 13.4774 3.39384 13.1034C3.01986 12.7294 3.01986 12.1376 3.39384 11.7636L6.58141 8.57605C6.65055 8.50683 6.69655 8.41789 6.71312 8.32147C6.72969 8.22505 6.71601 8.12587 6.67394 8.03754C6.00191 6.63002 6.24449 4.89358 7.41416 3.72391C8.23264 2.9097 9.3571 2.52743 10.4666 2.63949Z" fill="#C1BBF6" stroke="#1C1C1C" stroke-width="0.35"/>
<path fill-rule="evenodd" clip-rule="evenodd" d="M4.76967 11.7279C4.72568 11.6839 4.67345 11.649 4.61597 11.6252C4.5585 11.6014 4.49689 11.5891 4.43468 11.5891C4.37247 11.5891 4.31086 11.6014 4.25338 11.6252C4.19591 11.649 4.14368 11.6839 4.09969 11.7279C4.01084 11.8167 3.96094 11.9372 3.96094 12.0629C3.96094 12.1885 4.01084 12.309 4.09969 12.3978C4.14368 12.4418 4.19591 12.4767 4.25338 12.5005C4.31086 12.5243 4.37247 12.5366 4.43468 12.5366C4.49689 12.5366 4.5585 12.5243 4.61597 12.5005C4.67345 12.4767 4.72568 12.4418 4.76967 12.3978C4.85851 12.309 4.90842 12.1885 4.90842 12.0629C4.90842 11.9372 4.85851 11.8167 4.76967 11.7279Z" fill="#C1BBF6"/>
</svg>
