<svg width="17" height="16" viewBox="0 0 17 16" fill="none" xmlns="http://www.w3.org/2000/svg">
<path d="M9.35192 6.28913H5.07428C4.60177 6.28913 4.21875 5.90611 4.21875 5.4336V1.98297C4.21875 1.51046 4.60177 1.12744 5.07428 1.12744H9.35192C9.82443 1.12744 10.2074 1.51046 10.2074 1.98297V5.4336C10.2074 5.90611 9.82443 6.28913 9.35192 6.28913Z" stroke="#C1BBF6" stroke-width="0.5" stroke-miterlimit="10" stroke-linecap="round" stroke-linejoin="round"/>
<path d="M13.6293 11.4224H8.49615C8.02365 11.4224 7.64062 11.0393 7.64062 10.5668V5.43365C7.64062 4.96115 8.02365 4.57812 8.49615 4.57812H13.6293C14.1018 4.57812 14.4849 4.96115 14.4849 5.43365V10.5668C14.4849 11.0393 14.1018 11.4224 13.6293 11.4224Z" stroke="#C1BBF6" stroke-width="0.5" stroke-miterlimit="10" stroke-linecap="round" stroke-linejoin="round"/>
<path d="M8.49639 14.8726H5.07428C4.60177 14.8726 4.21875 14.4896 4.21875 14.0171V10.5665C4.21875 10.094 4.60177 9.71094 5.07428 9.71094H8.49639C8.9689 9.71094 9.35192 10.094 9.35192 10.5665V14.0171C9.35192 14.4896 8.9689 14.8726 8.49639 14.8726Z" stroke="#C1BBF6" stroke-width="0.5" stroke-miterlimit="10" stroke-linecap="round" stroke-linejoin="round"/>
<path d="M15.3673 13.1616H13.6562V14.8727H15.3673V13.1616Z" stroke="#C1BBF6" stroke-width="0.5" stroke-miterlimit="10" stroke-linecap="round" stroke-linejoin="round"/>
<path d="M3.33606 7.14478H1.625V8.85583H3.33606V7.14478Z" stroke="#C1BBF6" stroke-width="0.5" stroke-miterlimit="10" stroke-linecap="round" stroke-linejoin="round"/>
<path d="M15.3673 1.12744H13.6562V2.8385H15.3673V1.12744Z" stroke="#C1BBF6" stroke-width="0.5" stroke-miterlimit="10" stroke-linecap="round" stroke-linejoin="round"/>
</svg>
