<svg width="81" height="81" viewBox="0 0 81 81" fill="none" xmlns="http://www.w3.org/2000/svg">
<g clip-path="url(#clip0_7662_14148)">
<path d="M76.4127 13.4239H4.13051C1.85863 13.4239 0 15.2825 0 17.5542V62.989C0 65.2605 1.85863 67.1195 4.13051 67.1195H76.4129C78.6844 67.1195 80.5434 65.2608 80.5434 62.989V17.5542C80.5432 15.2825 78.6846 13.4239 76.4127 13.4239ZM74.8627 16.5215L42.6476 40.6848C42.0684 41.1256 41.1793 41.4013 40.2715 41.3972C39.3638 41.4013 38.4748 41.1256 37.8954 40.6848L5.68034 16.5215H74.8627ZM57.6545 42.2791L75.2088 63.964C75.2264 63.9857 75.248 64.0022 75.2667 64.0219H5.27653C5.29509 64.0013 5.3168 63.9857 5.33442 63.964L22.8888 42.2791C23.4266 41.6142 23.3247 40.6393 22.6584 40.1002C21.9935 39.5624 21.0186 39.6643 20.4806 40.3294L3.09777 61.8025V18.4577L36.0377 43.1627C37.2759 44.0849 38.7824 44.4908 40.2713 44.4949C41.7582 44.4917 43.2659 44.0858 44.5049 43.1627L77.4448 18.4577V61.8022L60.0624 40.3294C59.5244 39.6645 58.5486 39.5622 57.8846 40.1002C57.2186 40.6381 57.1163 41.6142 57.6545 42.2791Z" fill="#C1BBF6"/>
</g>
<defs>
<clipPath id="clip0_7662_14148">
<rect width="80.5434" height="80.5434" fill="white"/>
</clipPath>
</defs>
</svg>
