<svg width="81" height="81" viewBox="0 0 81 81" fill="none" xmlns="http://www.w3.org/2000/svg">
<path d="M40.2712 15.2178C42.5646 15.2178 44.4238 13.3586 44.4238 11.0652C44.4238 8.77177 42.5646 6.9126 40.2712 6.9126C37.9778 6.9126 36.1187 8.77177 36.1187 11.0652C36.1187 13.3586 37.9778 15.2178 40.2712 15.2178Z" stroke="#C1BBF6" stroke-width="2.51698" stroke-miterlimit="10" stroke-linecap="round" stroke-linejoin="round"/>
<path d="M40.2712 73.6307C42.5646 73.6307 44.4238 71.7715 44.4238 69.4781C44.4238 67.1847 42.5646 65.3255 40.2712 65.3255C37.9778 65.3255 36.1187 67.1847 36.1187 69.4781C36.1187 71.7715 37.9778 73.6307 40.2712 73.6307Z" stroke="#C1BBF6" stroke-width="2.51698" stroke-miterlimit="10" stroke-linecap="round" stroke-linejoin="round"/>
<path d="M15.0925 29.8901C17.3859 29.8901 19.2451 28.0309 19.2451 25.7375C19.2451 23.4441 17.3859 21.5849 15.0925 21.5849C12.7991 21.5849 10.9399 23.4441 10.9399 25.7375C10.9399 28.0309 12.7991 29.8901 15.0925 29.8901Z" stroke="#C1BBF6" stroke-width="2.51698" stroke-miterlimit="10" stroke-linecap="round" stroke-linejoin="round"/>
<path d="M65.4509 58.9583C67.7443 58.9583 69.6035 57.0991 69.6035 54.8057C69.6035 52.5123 67.7443 50.6531 65.4509 50.6531C63.1575 50.6531 61.2983 52.5123 61.2983 54.8057C61.2983 57.0991 63.1575 58.9583 65.4509 58.9583Z" stroke="#C1BBF6" stroke-width="2.51698" stroke-miterlimit="10" stroke-linecap="round" stroke-linejoin="round"/>
<path d="M15.0925 58.9583C17.3859 58.9583 19.2451 57.0991 19.2451 54.8057C19.2451 52.5123 17.3859 50.6531 15.0925 50.6531C12.7991 50.6531 10.9399 52.5123 10.9399 54.8057C10.9399 57.0991 12.7991 58.9583 15.0925 58.9583Z" stroke="#C1BBF6" stroke-width="2.51698" stroke-miterlimit="10" stroke-linecap="round" stroke-linejoin="round"/>
<path d="M65.4509 29.8901C67.7443 29.8901 69.6035 28.0309 69.6035 25.7375C69.6035 23.4441 67.7443 21.5849 65.4509 21.5849C63.1575 21.5849 61.2983 23.4441 61.2983 25.7375C61.2983 28.0309 63.1575 29.8901 65.4509 29.8901Z" stroke="#C1BBF6" stroke-width="2.51698" stroke-miterlimit="10" stroke-linecap="round" stroke-linejoin="round"/>
<path d="M40.2632 36.12V44.4252" stroke="#C1BBF6" stroke-width="2.51698" stroke-miterlimit="10" stroke-linecap="round" stroke-linejoin="round"/>
<path d="M36.1187 40.2724H44.4238" stroke="#C1BBF6" stroke-width="2.51698" stroke-miterlimit="10" stroke-linecap="round" stroke-linejoin="round"/>
<path d="M43.873 67.4005L61.853 56.8813" stroke="#C1BBF6" stroke-width="2.51698" stroke-miterlimit="10" stroke-linecap="round" stroke-linejoin="round"/>
<path d="M65.4409 50.6533V29.8917" stroke="#C1BBF6" stroke-width="2.51698" stroke-miterlimit="10" stroke-linecap="round" stroke-linejoin="round"/>
<path d="M61.853 23.6605L43.873 13.1412" stroke="#C1BBF6" stroke-width="2.51698" stroke-miterlimit="10" stroke-linecap="round" stroke-linejoin="round"/>
<path d="M36.6748 13.1412L18.6948 23.6605" stroke="#C1BBF6" stroke-width="2.51698" stroke-miterlimit="10" stroke-linecap="round" stroke-linejoin="round"/>
<path d="M15.0835 29.8917V50.6533" stroke="#C1BBF6" stroke-width="2.51698" stroke-miterlimit="10" stroke-linecap="round" stroke-linejoin="round"/>
<path d="M18.6948 56.8813L36.6748 67.4005" stroke="#C1BBF6" stroke-width="2.51698" stroke-miterlimit="10" stroke-linecap="round" stroke-linejoin="round"/>
</svg>
