<svg width="16" height="16" viewBox="0 0 16 16" fill="none" xmlns="http://www.w3.org/2000/svg">
<path d="M8.06991 8.77394L8.45644 8.38683C8.84297 7.99972 9.0538 7.47184 9.0538 6.90878C9.0538 6.34571 8.84297 5.81784 8.45644 5.43073C8.06991 5.04362 7.54283 4.83247 6.98061 4.83247C6.41838 4.83247 5.92644 5.04362 5.50477 5.43073L1.9206 9.02028C1.74491 9.19624 1.56921 9.44258 1.4638 9.68892C1.35838 9.93526 1.32324 10.2168 1.32324 10.4983C1.32324 10.7799 1.39352 11.0262 1.4638 11.3077C1.53408 11.5893 1.70977 11.8004 1.9206 11.9764C2.30713 12.3635 2.83422 12.5746 3.39644 12.5746C3.95866 12.5746 4.4506 12.3635 4.87227 11.9764M7.92936 7.2255L7.54283 7.61261C7.36713 7.78857 7.19144 8.03491 7.08602 8.28125C6.98061 8.52759 6.94547 8.80913 6.94547 9.09066C6.94547 9.37219 7.01574 9.61854 7.08602 9.90007C7.19144 10.1464 7.33199 10.3928 7.54283 10.5687C7.92936 10.9558 8.45644 11.167 9.01866 11.167C9.58088 11.167 10.0728 10.9558 10.4945 10.5687C10.6702 10.3928 13.8327 7.2255 14.0787 6.97916C14.4652 6.59205 14.676 6.06418 14.676 5.50111C14.676 4.93805 14.4652 4.41017 14.0787 4.02306C13.6921 3.63595 13.1651 3.4248 12.6028 3.4248C12.0406 3.4248 11.5487 3.63595 11.127 4.02306" stroke="#C1BBF6" stroke-width="0.6" stroke-miterlimit="10"/>
</svg>
