<svg width="17" height="17" viewBox="0 0 17 17" fill="none" xmlns="http://www.w3.org/2000/svg">
<g clip-path="url(#clip0_2984_6772)">
<circle cx="8.85501" cy="3.30277" r="2.01126" stroke="#C1BBF6" stroke-width="0.5"/>
<circle cx="8.85669" cy="13.5833" r="2.34888" stroke="#C1BBF6" stroke-width="0.5"/>
<path d="M12.797 13.583C12.797 11.4084 11.0341 9.64551 8.85942 9.64551C6.68477 9.64551 4.92188 11.4084 4.92188 13.583" stroke="#C1BBF6" stroke-width="0.5" stroke-linecap="round"/>
<circle cx="8.8589" cy="3.30275" r="0.796398" stroke="#C1BBF6" stroke-width="0.5"/>
<circle cx="8.85888" cy="13.583" r="0.952631" stroke="#C1BBF6" stroke-width="0.5"/>
<circle cx="14.5894" cy="6.8804" r="2.01126" stroke="#C1BBF6" stroke-width="0.5"/>
<line x1="13.318" y1="8.77672" x2="11.421" y2="10.6875" stroke="#C1BBF6" stroke-width="0.5"/>
<circle cx="2.26126" cy="2.26126" r="2.01126" transform="matrix(-1 0 0 1 5.38281 4.61914)" stroke="#C1BBF6" stroke-width="0.5"/>
<line y1="-0.25" x2="2.69252" y2="-0.25" transform="matrix(0.704553 0.709651 0.709651 -0.704553 4.57031 8.60059)" stroke="#C1BBF6" stroke-width="0.5"/>
<line x1="9.08594" y1="5.56396" x2="9.08594" y2="9.70403" stroke="#C1BBF6" stroke-width="0.5"/>
</g>
<defs>
<clipPath id="clip0_2984_6772">
<rect width="16" height="16" fill="white" transform="translate(0.859375 0.611816)"/>
</clipPath>
</defs>
</svg>
