<svg width="17" height="16" viewBox="0 0 17 16" fill="none" xmlns="http://www.w3.org/2000/svg">
<path d="M11.9141 9.29559C12.0783 8.87393 12.1683 8.41517 12.1683 7.93539C12.1683 7.45561 12.0783 6.99686 11.9141 6.5752" stroke="#C1BBF6" stroke-width="0.7" stroke-miterlimit="10"/>
<path d="M7.0625 11.4333C7.48416 11.5976 7.94292 11.6876 8.4227 11.6876C8.90247 11.6876 9.36123 11.5976 9.78289 11.4333" stroke="#C1BBF6" stroke-width="0.7" stroke-miterlimit="10"/>
<path d="M4.92611 6.5752C4.7619 6.99686 4.67188 7.45561 4.67188 7.93539C4.67188 8.41517 4.7619 8.87393 4.92611 9.29559" stroke="#C1BBF6" stroke-width="0.7" stroke-miterlimit="10"/>
<path d="M9.78289 4.43783C9.36123 4.27361 8.90247 4.18359 8.4227 4.18359C7.94292 4.18359 7.48416 4.27361 7.0625 4.43783" stroke="#C1BBF6" stroke-width="0.7" stroke-miterlimit="10"/>
<path d="M10.3466 7.94087C10.3466 6.88083 9.48724 6.02148 8.4272 6.02148C7.36716 6.02148 6.50781 6.88083 6.50781 7.94087C6.50781 9.00091 7.36716 9.86026 8.4272 9.86026C9.48724 9.86026 10.3466 9.00091 10.3466 7.94087Z" stroke="#C1BBF6" stroke-width="0.7" stroke-miterlimit="10"/>
<path d="M5.32719 12.5664C5.32719 11.7965 4.70304 11.1724 3.93312 11.1724C3.16319 11.1724 2.53906 11.7965 2.53906 12.5664C2.53906 13.3364 3.16319 13.9605 3.93312 13.9605C4.70304 13.9605 5.32719 13.3364 5.32719 12.5664Z" stroke="#C1BBF6" stroke-width="0.7" stroke-miterlimit="10"/>
<path d="M13.3597 11.8879C13.3597 11.3463 12.9206 10.9072 12.3791 10.9072C11.8375 10.9072 11.3984 11.3463 11.3984 11.8879C11.3984 12.4294 11.8375 12.8685 12.3791 12.8685C12.9206 12.8685 13.3597 12.4294 13.3597 11.8879Z" stroke="#C1BBF6" stroke-width="0.7" stroke-miterlimit="10"/>
<path d="M4.02291 2.78148C4.02291 2.37171 3.69075 2.03955 3.28099 2.03955C2.87122 2.03955 2.53906 2.37171 2.53906 2.78148C2.53906 3.19124 2.87122 3.5234 3.28099 3.5234C3.69075 3.5234 4.02291 3.19124 4.02291 2.78148Z" stroke="#C1BBF6" stroke-width="0.7" stroke-miterlimit="10"/>
<path d="M9.78906 9.29761L11.6859 11.1945" stroke="#C1BBF6" stroke-width="0.7" stroke-miterlimit="10"/>
<path d="M4.89844 11.5669L7.086 9.31689" stroke="#C1BBF6" stroke-width="0.7" stroke-miterlimit="10"/>
<path d="M13.2549 4.44012C12.592 4.44012 12.0547 3.90279 12.0547 3.23996C12.0547 2.57715 12.592 2.03979 13.2549 2.03979C13.9177 2.03979 14.455 2.57715 14.455 3.23996C14.455 3.90279 13.9177 4.44012 13.2549 4.44012Z" stroke="#C1BBF6" stroke-width="0.7" stroke-miterlimit="10"/>
<path d="M12.3745 4.10278L9.8125 6.5937" stroke="#C1BBF6" stroke-width="0.7" stroke-miterlimit="10"/>
<path d="M3.79688 3.30615L7.06612 6.58133" stroke="#C1BBF6" stroke-width="0.7" stroke-miterlimit="10"/>
</svg>
