<svg width="81" height="81" viewBox="0 0 81 81" fill="none" xmlns="http://www.w3.org/2000/svg">
<path d="M69.7066 17.1911L40.5506 1.65531C40.1181 1.42446 39.5997 1.4277 39.1704 1.66341L10.8212 17.1992C10.3562 17.4544 10.0679 17.942 10.0679 18.4725V38.7663C10.0849 55.4482 19.9685 70.5402 35.2532 77.2235L39.1882 78.9382C39.5559 79.0986 39.9747 79.0994 40.3432 78.9398L44.7772 77.025C60.3454 70.4867 70.4736 55.249 70.4752 38.3637V18.4725C70.4752 17.9363 70.1796 17.443 69.7066 17.1911ZM67.5722 38.3637C67.569 54.085 58.1365 68.2705 43.6408 74.3544L43.631 74.3593L39.7698 76.0263L36.4147 74.5626C22.1871 68.3418 12.9863 54.2948 12.9701 38.7663V19.3319L39.8775 4.58508L67.5722 19.3425V38.3637Z" fill="#C1BBF6"/>
<path d="M29.1683 37.8251C28.6475 37.2151 27.7314 37.1431 27.1214 37.6639C26.5115 38.1839 26.4394 39.1008 26.9602 39.7099L34.6277 48.6888C35.1396 49.2882 36.0363 49.37 36.647 48.8727L54.5043 34.3445C55.1264 33.8391 55.2203 32.9246 54.7141 32.3025C54.2087 31.6812 53.2942 31.5865 52.6721 32.0927L35.9148 45.725L29.1683 37.8251Z" fill="#C1BBF6"/>
</svg>
