<svg width="81" height="81" viewBox="0 0 81 81" fill="none" xmlns="http://www.w3.org/2000/svg">
<path d="M17.2652 68.7618H26.6266L22.7397 72.6487C22.0851 73.3033 22.0851 74.3638 22.7397 75.0184C23.067 75.3458 23.4958 75.5094 23.9246 75.5094C24.3534 75.5094 24.7821 75.3458 25.1095 75.0184L31.8572 68.2707C32.5119 67.616 32.5119 66.5556 31.8572 65.9009L25.1095 59.1532C24.4548 58.4985 23.3944 58.4985 22.7397 59.1532C22.0851 59.8078 22.0851 60.8683 22.7397 61.5229L26.6266 65.4098H17.2652C14.4928 65.4098 12.2375 63.1546 12.2375 60.3821V46.9751C12.2375 46.0487 11.488 45.2992 10.5616 45.2992C9.63523 45.2992 8.88574 46.0487 8.88574 46.9751V60.3821C8.88574 65.0025 12.645 68.7618 17.2652 68.7618Z" fill="#C1BBF6"/>
<path d="M64.1909 11.7816H54.8295L58.7164 7.89467C59.3711 7.24002 59.3711 6.17958 58.7164 5.52492C58.0618 4.87027 57.0013 4.87027 56.3467 5.52492L49.5989 12.2727C48.9442 12.9273 48.9442 13.9878 49.5989 14.6424L56.3467 21.3902C56.674 21.7175 57.1028 21.8812 57.5315 21.8812C57.9603 21.8812 58.3891 21.7175 58.7164 21.3902C59.3711 20.7355 59.3711 19.6751 58.7164 19.0205L54.8295 15.1336H64.1909C66.9633 15.1336 69.2187 17.3888 69.2187 20.1613V33.5683C69.2187 34.4947 69.9681 35.2442 70.8945 35.2442C71.8209 35.2442 72.5704 34.4947 72.5704 33.5683V20.1613C72.5704 15.5409 68.8111 11.7816 64.1909 11.7816Z" fill="#C1BBF6"/>
<path d="M52.4602 31.8921C41.3706 31.8921 32.3496 40.9131 32.3496 52.0027C32.3496 63.0923 41.3706 72.1133 52.4602 72.1133C63.5498 72.1133 72.5708 63.0923 72.5708 52.0027C72.5708 40.9131 63.5499 31.8921 52.4602 31.8921ZM52.4602 68.7616C43.2199 68.7616 35.7013 61.243 35.7013 52.0027C35.7013 42.7624 43.2199 35.2438 52.4602 35.2438C61.7005 35.2438 69.2191 42.7624 69.2191 52.0027C69.2191 61.243 61.7005 68.7616 52.4602 68.7616Z" fill="#C1BBF6"/>
<path d="M45.7554 28.5405C45.7554 29.4669 46.5049 30.2164 47.4312 30.2164C48.3576 30.2164 49.1071 29.4669 49.1071 28.5405C49.1071 17.4509 40.0861 8.42993 28.9965 8.42993C17.9069 8.42993 8.88574 17.4508 8.88574 28.5405C8.88574 39.6303 17.9068 48.6511 28.9963 48.6511C29.9227 48.6511 30.6722 47.9016 30.6722 46.9753C30.6722 46.0489 29.9227 45.2994 28.9963 45.2994C19.7561 45.2994 12.2375 37.7808 12.2375 28.5405C12.2375 19.3002 19.7562 11.7817 28.9965 11.7817C38.2368 11.7817 45.7554 19.3002 45.7554 28.5405Z" fill="#C1BBF6"/>
</svg>
