<svg width="16" height="16" viewBox="0 0 16 16" fill="none" xmlns="http://www.w3.org/2000/svg">
<path d="M11.2959 3.5734C11.5667 3.90299 11.2831 6.44015 11.406 7.00957L14.3987 8.65526L14.3361 12.415L11.1119 14.173L8.02418 12.5409L4.94474 14.1813L1.62547 12.3773L1.60059 8.65526L4.64382 6.94697L4.75468 3.51306L8.03096 1.81836L11.2952 3.5734H11.2959ZM10.4128 3.70388L8.02493 2.43304L5.58582 3.70388L7.97364 5.04335L10.412 3.70388H10.4128ZM7.6976 8.30379V5.62636L5.28414 4.30649V7.02164L7.6976 8.30379ZM10.7899 4.30649L8.30097 5.62636V8.30379C9.13512 7.85052 10.007 7.45079 10.7899 6.90851V4.30649ZM7.3205 8.75707L4.88064 7.48925L2.5705 8.79328L4.94399 10.1101C5.13179 10.0211 7.40497 8.86493 7.3205 8.75707ZM8.67807 8.75707C8.59059 8.87473 10.808 9.98493 10.9905 10.0965L13.4281 8.79328L11.1172 7.4885L8.67807 8.75632V8.75707ZM4.68077 13.357V10.6796L2.19189 9.28427V12.0748L4.68077 13.357ZM13.8067 12.0748V9.28427L11.3932 10.5664V13.357L13.8067 12.0748ZM7.6976 9.35969L5.21324 10.6516C5.19213 10.6826 5.28414 10.7384 5.28414 10.755V13.2439C5.28414 13.274 5.09031 13.3766 5.32034 13.3555L7.6976 12.0748V9.35969ZM10.7899 13.357V10.6796L8.30097 9.35969V11.9617L8.55061 12.1646L10.7899 13.357Z" fill="#C1BBF6"/>
</svg>
