<svg width="16" height="16" viewBox="0 0 16 16" fill="none" xmlns="http://www.w3.org/2000/svg">
<path d="M7.98233 2.16895V13.8309M14.6763 4.18534C14.6763 4.71382 11.6871 5.14223 7.99979 5.14223C4.31243 5.14223 1.32324 4.71382 1.32324 4.18534C1.32324 3.65687 4.31243 3.22845 7.99979 3.22845C11.6871 3.22845 14.6763 3.65687 14.6763 4.18534ZM13.9755 7.99968C13.9755 8.52816 11.3001 8.95657 7.99979 8.95657C4.69951 8.95657 2.02412 8.52816 2.02412 7.99968C2.02412 7.4712 4.69951 7.04279 7.99979 7.04279C11.3001 7.04279 13.9755 7.4712 13.9755 7.99968ZM12.7583 11.8145C12.7583 12.343 10.6279 12.7714 7.99979 12.7714C5.37172 12.7714 3.24125 12.343 3.24125 11.8145C3.24125 11.2861 5.37172 10.8577 7.99979 10.8577C10.6279 10.8577 12.7583 11.2861 12.7583 11.8145Z" stroke="#C1BBF6" stroke-width="0.6" stroke-miterlimit="10"/>
</svg>
