<?xml version="1.0" encoding="UTF-8" standalone="no"?>
<svg
   width="22"
   height="22"
   fill="none"
   version="1.1"
   id="svg191"
   sodipodi:docname="docs.svg"
   inkscape:version="1.2.1 (9c6d41e4, 2022-07-14)"
   xmlns:inkscape="http://www.inkscape.org/namespaces/inkscape"
   xmlns:sodipodi="http://sodipodi.sourceforge.net/DTD/sodipodi-0.dtd"
   xmlns="http://www.w3.org/2000/svg"
   xmlns:svg="http://www.w3.org/2000/svg">
  <sodipodi:namedview
     id="namedview193"
     pagecolor="#ffffff"
     bordercolor="#666666"
     borderopacity="1.0"
     inkscape:showpageshadow="2"
     inkscape:pageopacity="0.0"
     inkscape:pagecheckerboard="0"
     inkscape:deskcolor="#d1d1d1"
     showgrid="false"
     inkscape:zoom="6.8787622"
     inkscape:cx="-11.848062"
     inkscape:cy="9.4493745"
     inkscape:window-width="1309"
     inkscape:window-height="430"
     inkscape:window-x="0"
     inkscape:window-y="25"
     inkscape:window-maximized="0"
     inkscape:current-layer="svg191" />
  <g
     clipPath="url(#a)"
     id="g184">
    <path
       fill="#fff"
       d="M9.901 16.289a.644.644 0 1 1-.001 1.287.644.644 0 0 1 .001-1.287Zm10.106-3.985a.644.644 0 1 1 .001-1.289.644.644 0 0 1-.001 1.289Zm0-2.636a1.994 1.994 0 0 0-1.888 2.626l-6.582 3.504A1.984 1.984 0 0 0 9.9 14.94c-.76 0-1.452.436-1.787 1.115l-5.913-3.118c-.626-.329-1.093-1.357-1.044-2.294.026-.489.195-.868.452-1.015.163-.091.36-.084.569.025l.038.021c1.568.825 6.695 3.527 6.912 3.627.333.154.518.217 1.086-.053l10.6-5.513c.156-.058.338-.208.338-.434 0-.314-.325-.437-.326-.437-.603-.29-1.53-.723-2.433-1.146-1.933-.905-4.123-1.93-5.084-2.434-.83-.434-1.499-.068-1.618.006l-.231.114C7.13 5.543 1.338 8.413 1.008 8.613c-.59.36-.955 1.076-1.003 1.964-.073 1.409.645 2.878 1.672 3.416l6.254 3.225a1.994 1.994 0 0 0 1.97 1.707 1.996 1.996 0 0 0 1.992-1.962l6.888-3.733A1.99 1.99 0 0 0 22 11.66a1.995 1.995 0 0 0-1.993-1.993"
       id="path182" />
  </g>
  <defs
     id="defs189">
    <clipPath
       id="a">
      <path
         fill="#fff"
         d="M0 0h22v22H0z"
         id="path186" />
    </clipPath>
  </defs>
</svg>
