<?xml version="1.0" encoding="UTF-8" standalone="no"?>
<svg
   width="19.249975"
   height="16.04286"
   fill="none"
   version="1.1"
   id="svg499"
   xmlns="http://www.w3.org/2000/svg"
   xmlns:svg="http://www.w3.org/2000/svg">
  <defs
     id="defs503" />
  <path
     fill="#fff"
     d="m 17.609233,0.1413996 c 0,0 1.78,-0.694 1.632,0.993 -0.05,0.694 -0.494,3.124 -0.84,5.753 l -1.188,7.7870004 c 0,0 -0.099,1.14 -0.99,1.34 -0.89,0.198 -2.225,-0.695 -2.472,-0.894 -0.198,-0.149 -3.71,-2.38 -4.9470005,-3.472 -0.3459997,-0.297 -0.7419997,-0.892 0.05,-1.587 L 14.047233,5.1013996 c 0.594,-0.595 1.188,-1.983 -1.286,-0.297 l -6.9250002,4.712 c 0,0 -0.791,0.4960004 -2.275,0.05 l -3.21599998,-0.993 c 0,0 -1.18700001,-0.744 0.84099998,-1.488 4.947,-2.33 11.0310002,-4.711 16.4230002,-6.943 z"
     id="path497"
     style="fill:#ffffff;fill-opacity:1" />
</svg>
