<?xml version="1.0" encoding="UTF-8" standalone="no"?>
<svg
   width="22"
   height="22"
   fill="none"
   version="1.1"
   id="svg499"
   sodipodi:docname="telegram.svg"
   inkscape:version="1.2.1 (9c6d41e4, 2022-07-14)"
   xmlns:inkscape="http://www.inkscape.org/namespaces/inkscape"
   xmlns:sodipodi="http://sodipodi.sourceforge.net/DTD/sodipodi-0.dtd"
   xmlns="http://www.w3.org/2000/svg"
   xmlns:svg="http://www.w3.org/2000/svg">
  <defs
     id="defs503" />
  <sodipodi:namedview
     id="namedview501"
     pagecolor="#ffffff"
     bordercolor="#666666"
     borderopacity="1.0"
     inkscape:showpageshadow="2"
     inkscape:pageopacity="0.0"
     inkscape:pagecheckerboard="0"
     inkscape:deskcolor="#d1d1d1"
     showgrid="false"
     inkscape:zoom="10.727273"
     inkscape:cx="0.13983051"
     inkscape:cy="11"
     inkscape:window-width="1309"
     inkscape:window-height="430"
     inkscape:window-x="0"
     inkscape:window-y="25"
     inkscape:window-maximized="0"
     inkscape:current-layer="svg499" />
  <path
     fill="#fff"
     d="M18.984 3.35s1.78-.694 1.632.993c-.05.694-.494 3.124-.84 5.753l-1.188 7.787s-.099 1.14-.99 1.34c-.89.198-2.225-.695-2.472-.894-.198-.149-3.71-2.38-4.947-3.472-.346-.297-.742-.892.05-1.587l5.193-4.96c.594-.595 1.188-1.983-1.286-.297l-6.925 4.712s-.791.496-2.275.05l-3.216-.993s-1.187-.744.841-1.488c4.947-2.33 11.031-4.711 16.423-6.943Z"
     id="path497" />
</svg>
